<svg xmlns="http://www.w3.org/2000/svg" viewBox="0 0 954.08 198.46"><defs><style>.cls-1{fill:#27eeab;}.cls-2{fill:#0c0b0c;}</style></defs><title>Asset 3</title><g id="Layer_2" data-name="Layer 2"><g id="Layer_1-2" data-name="Layer 1"><path class="cls-1" d="M110.08,198.46c-18.84,0-34.83-10.24-59.54-30.41-13-10.59-24.48-25-33.29-41.65a151.16,151.16,0,0,1-17-57.15C-1.14,53.61,3.88,38.7,14.72,26.14c13-15,33-24.75,53.47-26C83.88-.8,98.08,2.74,110.08,10.49,122.08,2.74,136.28-.8,152,.15c20.51,1.24,40.5,11,53.47,26,10.84,12.56,15.86,27.47,14.5,43.11a151.16,151.16,0,0,1-17,57.15c-8.82,16.67-20.33,31.06-33.29,41.65C144.91,188.22,128.92,198.46,110.08,198.46ZM73.14,18.56c-1.25,0-2.52,0-3.83.12C53.69,19.62,38.54,27,28.77,38.26c-5.22,6.06-11.21,16.08-10.06,29.39,2.86,33,20,66.75,43.57,86,21.31,17.4,34.55,26.23,47.8,26.23s26.49-8.83,47.8-26.23c23.6-19.26,40.7-53,43.56-86,1.16-13.31-4.83-23.33-10.06-29.39C181.62,27,166.46,19.62,150.85,18.68c-10.44-.63-19,1.33-26,4.74a89.43,89.43,0,0,1,17.39,32.39c3.59,12.52,1.92,24.26-4.71,33.06-6.23,8.27-16,12.82-27.43,12.82s-21.2-4.55-27.43-12.82c-6.63-8.8-8.3-20.54-4.71-33.06A89.26,89.26,0,0,1,95.33,23.42,50.13,50.13,0,0,0,73.14,18.56Zm36.94,16.07c-8.72,9.62-12.77,21-14.3,26.31-1.94,6.78-1.34,12.73,1.7,16.76,2.63,3.5,7.11,5.43,12.6,5.43s10-1.93,12.6-5.42c3-4,3.64-10,1.69-16.77C122.85,55.62,118.79,44.25,110.08,34.63Z"/><path class="cls-2" d="M276.53,88.38H269V77.66h7.5V61.86h13.26v15.8h15.45V88.38H289.79v35.18c0,4.73,1.84,6.69,7.38,6.69h8.07V141.2H294.86c-11.3,0-18.33-4.73-18.33-17.64Z"/><path class="cls-2" d="M330.5,141.2H317.35V77.66H330.5v9.22c3.69-6.34,10-10.26,19-10.26V90.23h-3.35c-9.68,0-15.68,4-15.68,17.53Z"/><path class="cls-2" d="M389,142.24c-18.22,0-31.72-12.92-31.72-32.87S370.17,76.62,389,76.62c18.11,0,30.91,12.57,30.91,31.25a41.2,41.2,0,0,1-.46,6.46H370.86c.93,10.5,8.42,16.84,18.11,16.84,8.07,0,12.57-3.92,15-8.88h14.19C414.57,133.36,404.54,142.24,389,142.24Zm-18-38.52h35.17c-.23-9.8-7.95-16-17.76-16C379.51,87.69,372.36,93.69,371,103.72Z"/><path class="cls-2" d="M477.89,105.68C477.89,94,471.54,88,462,88s-16,6-16,17.64V141.2H432.79V77.66h13.15v7.26c4.27-5.19,11.3-8.3,18.92-8.3,14.87,0,26.06,9.34,26.06,27.1V141.2h-13Z"/><path class="cls-2" d="M533.36,76.62c8.3,0,17.07,3.92,21.91,9.92V55.86h13.27V141.2H555.27v-9.57c-4,5.77-11.65,10.61-22,10.61-16.73,0-30-13.49-30-33.1S516.52,76.62,533.36,76.62ZM536,88c-9.8,0-19.26,7.38-19.26,21.1s9.46,21.68,19.26,21.68,19.26-7.72,19.26-21.45S545.93,88,536,88Z"/><path class="cls-2" d="M675.9,105.68C675.9,94,669.56,88,660,88s-16,6-16,17.64V141.2h-13V105.68C630.93,94,624.59,88,615,88s-16,6-16,17.64V141.2H585.84V77.66H599v7.26c4.27-5.19,11.19-8.3,18.8-8.3,10,0,18.45,4.27,22.84,12.57,3.92-7.73,12.91-12.57,22.14-12.57,14.87,0,26.18,9.34,26.18,27.1V141.2h-13Z"/><path class="cls-2" d="M731.26,76.62c10.73,0,18.11,5.08,22,10.26V77.66h13.26V141.2H753.29v-9.45c-4,5.42-11.65,10.49-22.26,10.49-16.49,0-29.75-13.49-29.75-33.1S714.54,76.62,731.26,76.62ZM734,88c-9.8,0-19.26,7.38-19.26,21.1s9.46,21.68,19.26,21.68,19.26-7.72,19.26-21.45S744,88,734,88Z"/><path class="cls-2" d="M785.93,88.38h-7.49V77.66h7.49V61.86h13.26v15.8h15.46V88.38H799.19v35.18c0,4.73,1.85,6.69,7.39,6.69h8.07V141.2H804.27c-11.3,0-18.34-4.73-18.34-17.64Z"/><path class="cls-2" d="M853.51,76.62c15.57,0,25.72,7.73,29.3,21.11H868.62c-2.19-6.12-7.26-10-15.11-10-10.61,0-17.64,7.84-17.64,21.68s7,21.8,17.64,21.8c7.85,0,12.69-3.46,15.11-10h14.19c-3.58,12.45-13.73,21.1-29.3,21.1-18.22,0-31.13-12.92-31.13-32.87S835.29,76.62,853.51,76.62Z"/><path class="cls-2" d="M896,55.86H909.1V85c4.38-5.31,11.53-8.42,19.72-8.42,14.19,0,25.26,9.34,25.26,27.1V141.2h-13V105.68C941.05,94,934.7,88,925.13,88s-16,6-16,17.64V141.2H896Z"/></g></g></svg>