<svg id="Layer_1" data-name="Layer 1" xmlns="http://www.w3.org/2000/svg" viewBox="0 0 1918.59 401.92"><title>Artboard 1</title><path d="M96.54,216H72.3V29h-66V7.5H162.56V29h-66Z"></path><path d="M276.56,129.26V216H252.32V7.5H309.5q38.35,0,56.67,14.69t18.32,44.2q0,41.35-41.92,55.89L399.18,216H370.52L320,129.26Zm0-20.82h33.22q25.66,0,37.64-10.19t12-30.58q0-20.67-12.19-29.8t-39.14-9.13H276.56Z"></path><path d="M607.43,216H491.23V7.5h116.2V29h-92V96.19h86.4v21.39h-86.4v76.71h92Z"></path><path d="M874.85,216H847.19L733.27,41h-1.14q2.28,30.8,2.28,56.46V216H712V7.5H739.4L853,181.73h1.14q-.29-3.85-1.28-24.74t-.71-29.87V7.5h22.67Z"></path><path d="M1157,109.73q0,51.62-28,78.92T1048.31,216H990.56V7.5h63.88q48.62,0,75.57,26.95T1157,109.73Zm-25.66.86q0-40.78-20.46-61.45T1050,28.46H1014.8V195h29.51q43.34,0,65.16-21.32T1131.29,110.59Z"></path><path d="M1428.22,109.73q0,51.62-28,78.92T1319.58,216h-57.74V7.5h63.88q48.62,0,75.57,26.95T1428.22,109.73Zm-25.66.86q0-40.78-20.46-61.45t-60.81-20.67h-35.22V195h29.51q43.34,0,65.16-21.32T1402.56,110.59Z"></path><path d="M1664.13,216l-25.95-66.3h-83.55L1529,216h-24.52l82.41-209.3h20.39l82,209.3Zm-33.51-88.11-24.24-64.59q-4.71-12.26-9.7-30.08a270.34,270.34,0,0,1-9,30.08l-24.52,64.59Z"></path><path d="M1829.32,111.73,1884.93,7.5h26.23l-69.58,127.61V216h-24.52v-79.7L1747.63,7.5h26.52Z"></path><path d="M633.91,360.75q0,17.68-9.59,27t-27.61,9.35H576.93V325.74H598.8q16.65,0,25.88,9.23T633.91,360.75Zm-8.79.29q0-14-7-21t-20.83-7.08H585.23v57h10.11q14.84,0,22.31-7.3T625.12,361Z"></path><path d="M739.62,397.13H699.83V325.74h39.79v7.37H708.13v23h29.59v7.32H708.13v26.27h31.49Z"></path><path d="M861.2,397.13h-9.47l-39-59.91h-.39q.78,10.55.78,19.34v40.58h-7.67V325.74h9.38l38.92,59.67h.39q-.1-1.32-.44-8.47t-.24-10.23v-41h7.76Z"></path><path d="M962.42,397.13,938.2,333.85h-.39q.68,7.52.68,17.87v45.41h-7.67V325.74h12.5l22.61,58.89h.39l22.8-58.89h12.4v71.39h-8.3v-46q0-7.91.68-17.19h-.39l-24.41,63.18Z"></path><path d="M1116,397.13l-8.89-22.71h-28.61l-8.79,22.71h-8.4l28.22-71.68h7l28.08,71.68ZM1104.51,367l-8.3-22.12q-1.61-4.2-3.32-10.3a92.57,92.57,0,0,1-3.08,10.3l-8.4,22.12Z"></path><path d="M1192.7,367.44v29.69h-8.3V325.74H1204q13.13,0,19.41,5t6.27,15.14q0,14.16-14.36,19.14l19.38,32.08h-9.81l-17.29-29.69Zm0-7.13h11.38q8.79,0,12.89-3.49t4.1-10.47q0-7.08-4.17-10.21t-13.4-3.12H1192.7Z"></path><path d="M1347.78,397.13H1338l-26-34.62-7.47,6.64v28h-8.3V325.74h8.3v35.4l32.37-35.4h9.81l-28.71,31Z"></path></svg>