<svg xmlns="http://www.w3.org/2000/svg" viewBox="0 0 512.02 461.56"><defs><style>.a3b50e9c-9443-4d87-8166-ef41440d4dab{fill:#27eeab;}</style></defs><title>Asset 2</title><g id="e6505db4-0a94-439b-9f45-296b2beabc20" data-name="Layer 2"><g id="64c42889-5d32-4921-8122-0b3944d94f3a" data-name="Layer 1"><path class="a3b50e9c-9443-4d87-8166-ef41440d4dab" d="M256,461.56c-43.81,0-81-23.82-138.48-70.74C87.39,366.22,60.62,332.73,40.11,294,18.14,252.46,4.45,206.5.51,161.06-2.65,124.68,9,90,34.23,60.78,64.4,25.82,110.89,3.23,158.58.35c36.5-2.21,69.53,6,97.43,24,27.9-18,60.93-26.24,97.43-24,47.69,2.88,94.18,25.47,124.35,60.43C503,90,514.67,124.68,511.51,161.06c-3.94,45.44-17.63,91.4-39.6,132.92-20.51,38.75-47.28,72.24-77.42,96.84C337,437.74,299.82,461.56,256,461.56ZM170.11,43.17q-4.37,0-8.92.28C124.88,45.64,89.64,62.67,66.92,89c-12.16,14.09-26.09,37.38-23.4,68.34,6.65,76.71,46.42,155.24,101.31,200,49.57,40.46,80.37,61,111.18,61s61.61-20.54,111.17-61c54.9-44.82,94.67-123.34,101.32-200,2.68-31-11.24-54.25-23.4-68.34-22.72-26.32-58-43.35-94.27-45.54-24.27-1.47-44.2,3.09-60.51,11,25.42,29.49,36.73,62.45,40.43,75.34,8.36,29.11,4.47,56.41-10.95,76.89-14.48,19.22-37.14,29.81-63.79,29.81s-49.31-10.59-63.79-29.81c-15.42-20.48-19.31-47.78-10.95-76.89,3.69-12.89,15-45.85,40.43-75.34C207.43,47.53,190.39,43.17,170.11,43.17ZM256,80.53c-20.27,22.38-29.69,48.82-33.25,61.19-4.52,15.77-3.12,29.62,4,39,6.12,8.13,16.53,12.61,29.3,12.61s23.18-4.48,29.3-12.61c7.07-9.38,8.47-23.23,3.94-39C285.7,129.35,276.27,102.91,256,80.53Z"/></g></g></svg>